<?xml version="1.0" encoding="utf-8"?>
<!-- Generator: Adobe Illustrator 16.0.0, SVG Export Plug-In . SVG Version: 6.00 Build 0)  -->
<!DOCTYPE svg PUBLIC "-//W3C//DTD SVG 1.1//EN" "http://www.w3.org/Graphics/SVG/1.1/DTD/svg11.dtd">
<svg version="1.1" id="Layer_1" xmlns="http://www.w3.org/2000/svg" xmlns:xlink="http://www.w3.org/1999/xlink" x="0px" y="0px"
	 width="250px" height="250px" viewBox="0 0 250 250" enable-background="new 0 0 250 250" xml:space="preserve">
<g>
	<circle fill-rule="evenodd" clip-rule="evenodd" fill="#BCB49F" cx="125" cy="124.999" r="125"/>
	<path fill-rule="evenodd" clip-rule="evenodd" fill="#FFFFFF" d="M150.886,192.361c-2.678,0-4.956,0-7.235,0
		c-23.95,0-47.9-0.003-71.849,0.001c-7.911,0.002-13.613-5.451-13.614-13.101c-0.005-40.28,0-80.562,0.01-120.843
		c0.001-6.485,3.752-11.541,9.648-13.061c1.225-0.316,2.479-0.435,3.743-0.435c4.166-0.002,8.332,0.063,12.495-0.037
		c1.381-0.034,1.638,0.46,1.608,1.685c-0.074,3.122-0.056,6.248-0.031,9.371c0.026,3.42,1.295,4.637,4.68,4.635
		c15.948-0.009,31.896-0.009,47.845-0.01c2.721,0,4.144-1.353,4.178-4.108c0.045-3.397,0.063-6.797-0.004-10.193
		c-0.023-1.109,0.339-1.377,1.396-1.364c4.493,0.052,8.987,0.004,13.481,0.026c7.665,0.038,13.153,5.47,13.173,13.159
		c0.042,16.44,0.018,32.882,0.02,49.323c0.001,4.933-0.035,9.865,0.019,14.797c0.012,1.087-0.209,1.622-1.376,1.926
		c-4.927,1.279-9.417,3.521-13.462,6.603c-0.935,0.713-1.849,0.976-2.996,0.975c-26.581-0.022-53.161-0.015-79.741-0.012
		c-0.384,0-0.771-0.03-1.151,0.008c-1.412,0.137-2.385,1.141-2.397,2.441c-0.013,1.393,0.979,2.431,2.491,2.486
		c1.485,0.056,2.974,0.019,4.461,0.018c5.88-0.001,11.761,0.056,17.64-0.026c6.673-0.092,13.353-0.098,20.021-0.092
		c5.957,0.006,11.925-0.021,17.889,0.098c5.11,0.102,10.225,0.014,15.337,0.01c0.526,0,1.052,0,1.581,0
		c0.002,0.664-0.411,0.909-0.672,1.23c-5.541,6.842-8.801,14.571-9.03,23.445c-0.033,1.247-0.439,1.537-1.632,1.524
		c-5.81-0.058-11.62-0.019-17.428-0.019c-5.535,0-11.069-0.006-16.603-0.009c-3.781-0.001-7.562,0-11.343,0
		c-6.412,0-12.824,0-19.235,0c-0.219,0-0.439-0.006-0.658,0.003c-1.8,0.06-2.843,0.983-2.82,2.492
		c0.023,1.476,1.114,2.46,2.889,2.473c4.439,0.027,8.878,0.009,13.317,0.009c17.318,0,34.637,0.014,51.955-0.027
		c1.277-0.004,1.743,0.28,1.945,1.639c1.22,8.235,4.771,15.401,10.263,21.63C149.978,191.354,150.268,191.673,150.886,192.361z
		 M114.061,69.543c0-0.003,0-0.005,0-0.008c-7.015,0-14.03,0-21.044,0c-6.851,0-13.701,0.014-20.551-0.011
		c-1.387-0.005-2.525,0.354-3.033,1.739c-0.622,1.698,0.682,3.21,2.797,3.216c7.359,0.021,14.719,0.078,22.076-0.01
		c7.541-0.09,15.081-0.003,22.622-0.104c6.539-0.089,13.086,0.066,19.635-0.022c2.368-0.033,4.787,0.053,7.181,0.103
		c4.273,0.09,8.55,0.059,12.823,0c1.397-0.019,2.214-0.892,2.295-2.3c0.083-1.434-0.738-2.241-2.059-2.554
		c-0.469-0.11-0.98-0.048-1.474-0.048C141.573,69.543,127.817,69.543,114.061,69.543z M114.066,105.611c0,0.004,0,0.008,0,0.012
		c13.865,0,27.73,0.003,41.595-0.003c2.064-0.001,3.196-0.89,3.223-2.463c0.025-1.612-1.031-2.484-3.139-2.494
		c-5.042-0.021-10.083-0.013-15.125-0.015c-4.493-0.001-8.984,0-13.479,0c-4.548,0-9.096,0-13.644,0
		c-4.109,0-8.221-0.074-12.328,0.022c-3.479,0.082-6.986,0.199-10.435,0.129c-4.741-0.098-9.486,0.019-14.226-0.137
		c-1.642-0.054-3.292-0.063-4.929,0.047c-1.39,0.091-2.19,0.965-2.241,2.368c-0.048,1.351,0.741,2.131,1.992,2.44
		c0.468,0.116,0.978,0.089,1.468,0.09C86.556,105.611,100.311,105.611,114.066,105.611z"/>
	<path fill-rule="evenodd" clip-rule="evenodd" fill="#966340" d="M179.609,199.739c-19.997-0.03-36.24-16.296-36.241-36.289
		c-0.001-20.038,16.325-36.305,36.427-36.294c19.903,0.009,36.213,16.424,36.164,36.396
		C215.91,183.53,199.597,199.77,179.609,199.739z M205.453,147.088c-0.064-0.574-0.538-0.813-0.906-1.118
		c-2.146-1.786-4.301-3.561-6.454-5.336c-1.653-1.363-1.664-1.368-3.051,0.313c-7.139,8.657-14.272,17.319-21.41,25.978
		c-1.266,1.536-1.271,1.536-2.464,0.061c-2.374-2.938-4.768-5.858-7.1-8.829c-0.681-0.868-1.189-1.051-2.109-0.274
		c-2.381,2.015-4.823,3.959-7.287,5.872c-0.848,0.659-0.884,1.127-0.196,1.972c5.592,6.882,11.145,13.793,16.686,20.715
		c0.76,0.949,1.301,1.104,2.159,0.057c10.482-12.781,20.999-25.533,31.505-38.298C205.098,147.867,205.438,147.562,205.453,147.088z
		"/>
	<path fill-rule="evenodd" clip-rule="evenodd" fill="#966340" d="M114.215,35.314c6.46,0,12.922-0.003,19.383,0.001
		c2.555,0.001,3.454,0.889,3.459,3.44c0.011,4.435,0.011,8.869,0,13.305c-0.006,2.516-0.862,3.408-3.305,3.409
		c-12.866,0.009-25.733,0.011-38.599,0.001c-2.756-0.002-3.503-0.77-3.506-3.502c-0.004-4.49-0.012-8.979,0.004-13.47
		c0.008-2.282,0.911-3.179,3.181-3.182C101.293,35.308,107.754,35.314,114.215,35.314z"/>
</g>
</svg>
